<svg width="348" height="259" viewBox="0 0 348 259" fill="none" xmlns="http://www.w3.org/2000/svg">
<g filter="url(#filter0_dii_18_1382)">
<path d="M110.44 212.38C98.1733 212.38 86.29 211.843 74.79 210.77C63.29 209.697 52.6333 208.163 42.82 206.17V170.29H92.96C98.94 170.29 103.54 169.983 106.76 169.37C110.133 168.757 112.433 167.76 113.66 166.38C114.887 165 115.5 163.083 115.5 160.63V156.26C115.5 153.5 114.81 151.277 113.43 149.59C112.05 147.903 110.057 146.677 107.45 145.91C104.843 144.99 101.623 144.453 97.79 144.3L56.85 142.46V107.96L95.72 105.43C101.853 104.97 106.377 104.05 109.29 102.67C112.203 101.29 113.66 98.8367 113.66 95.31V93.24C113.66 88.7933 112.127 85.65 109.06 83.81C105.993 81.97 100.32 81.05 92.04 81.05H45.12V45.17C55.0867 43.4833 65.59 41.95 76.63 40.57C87.67 39.0367 98.8633 38.4233 110.21 38.73C120.023 38.8833 128.457 40.57 135.51 43.79C142.717 46.8567 148.237 51.61 152.07 58.05C155.903 64.3367 157.82 72.3867 157.82 82.2V93.7C157.82 97.5333 157.437 101.137 156.67 104.51C156.057 107.73 154.983 110.72 153.45 113.48C151.917 116.087 149.923 118.387 147.47 120.38C145.017 122.373 142.027 123.983 138.5 125.21C142.18 126.283 145.323 128.047 147.93 130.5C150.69 132.8 152.913 135.56 154.6 138.78C156.44 142 157.82 145.68 158.74 149.82C159.66 153.807 160.12 158.1 160.12 162.7V169.37C160.12 183.323 155.673 193.98 146.78 201.34C138.04 208.7 125.927 212.38 110.44 212.38ZM223.185 212.38C212.758 212.38 204.018 210.54 196.965 206.86C190.065 203.18 184.928 197.89 181.555 190.99C178.182 183.937 176.495 175.58 176.495 165.92V87.49C176.495 76.91 178.258 68.0167 181.785 60.81C185.465 53.6033 190.832 48.16 197.885 44.48C204.938 40.6467 213.448 38.73 223.415 38.73H260.675C270.335 38.73 278.462 40.6467 285.055 44.48C291.802 48.16 296.862 53.6033 300.235 60.81C303.762 68.0167 305.525 76.91 305.525 87.49V165.92C305.525 180.333 301.615 191.68 293.795 199.96C286.128 208.24 275.012 212.38 260.445 212.38H223.185ZM234.225 172.36H248.025C252.165 172.36 255.308 171.363 257.455 169.37C259.755 167.223 260.905 163.773 260.905 159.02V92.09C260.905 86.7233 259.832 83.1967 257.685 81.51C255.538 79.67 252.932 78.75 249.865 78.75H232.615C228.628 78.75 225.715 79.8233 223.875 81.97C222.035 84.1167 221.115 87.49 221.115 92.09V158.79C221.115 163.697 222.188 167.223 224.335 169.37C226.482 171.363 229.778 172.36 234.225 172.36Z" fill="url(#paint0_linear_18_1382)"/>
</g>
<defs>
<filter id="filter0_dii_18_1382" x="0.819824" y="0.269993" width="346.705" height="258.11" filterUnits="userSpaceOnUse" color-interpolation-filters="sRGB">
<feFlood flood-opacity="0" result="BackgroundImageFix"/>
<feColorMatrix in="SourceAlpha" type="matrix" values="0 0 0 0 0 0 0 0 0 0 0 0 0 0 0 0 0 0 127 0" result="hardAlpha"/>
<feOffset dy="4"/>
<feGaussianBlur stdDeviation="21"/>
<feComposite in2="hardAlpha" operator="out"/>
<feColorMatrix type="matrix" values="0 0 0 0 0.0705882 0 0 0 0 0 0 0 0 0 0.321569 0 0 0 0.5 0"/>
<feBlend mode="normal" in2="BackgroundImageFix" result="effect1_dropShadow_18_1382"/>
<feBlend mode="normal" in="SourceGraphic" in2="effect1_dropShadow_18_1382" result="shape"/>
<feColorMatrix in="SourceAlpha" type="matrix" values="0 0 0 0 0 0 0 0 0 0 0 0 0 0 0 0 0 0 127 0" result="hardAlpha"/>
<feOffset dx="5" dy="-5"/>
<feGaussianBlur stdDeviation="5.5"/>
<feComposite in2="hardAlpha" operator="arithmetic" k2="-1" k3="1"/>
<feColorMatrix type="matrix" values="0 0 0 0 0.709804 0 0 0 0 0.215686 0 0 0 0 0.94902 0 0 0 1 0"/>
<feBlend mode="normal" in2="shape" result="effect2_innerShadow_18_1382"/>
<feColorMatrix in="SourceAlpha" type="matrix" values="0 0 0 0 0 0 0 0 0 0 0 0 0 0 0 0 0 0 127 0" result="hardAlpha"/>
<feOffset dx="-8" dy="4"/>
<feGaussianBlur stdDeviation="9.5"/>
<feComposite in2="hardAlpha" operator="arithmetic" k2="-1" k3="1"/>
<feColorMatrix type="matrix" values="0 0 0 0 0.235294 0 0 0 0 0.72549 0 0 0 0 0.988235 0 0 0 1 0"/>
<feBlend mode="normal" in2="effect2_innerShadow_18_1382" result="effect3_innerShadow_18_1382"/>
</filter>
<linearGradient id="paint0_linear_18_1382" x1="216.286" y1="-180.579" x2="-116.088" y2="-26.7557" gradientUnits="userSpaceOnUse">
<stop stop-color="#3CB9FC"/>
<stop offset="1" stop-color="#8A2BE1"/>
</linearGradient>
</defs>
</svg>
