<svg width="18" height="15" viewBox="0 0 18 15" fill="none" xmlns="http://www.w3.org/2000/svg">
<path fill-rule="evenodd" clip-rule="evenodd" d="M0 4.92857C0 2.2066 2.15528 0 4.81395 0H13.186C15.8447 0 18 2.2066 18 4.92857V10.0714C18 12.7934 15.8447 15 13.186 15H4.81395C2.15528 15 0 12.7934 0 10.0714V4.92857ZM4.43338 4.33373C4.10484 4.08146 3.63401 4.14329 3.38175 4.47182C3.12948 4.80035 3.1913 5.27118 3.51984 5.52345L7.32504 8.4453C8.31279 9.20375 9.68694 9.20375 10.6747 8.4453L14.4799 5.52345C14.8084 5.27118 14.8702 4.80035 14.618 4.47182C14.3657 4.14329 13.8949 4.08146 13.5663 4.33373L9.76115 7.25558C9.31217 7.60033 8.68756 7.60033 8.23858 7.25558L4.43338 4.33373Z" fill="white"/>
</svg>
