<svg width="15" height="17" viewBox="0 0 15 17" fill="none" xmlns="http://www.w3.org/2000/svg">
<path fill-rule="evenodd" clip-rule="evenodd" d="M0 7.18699C0 3.2116 3.36423 0 7.5 0C11.6358 0 15 3.2116 15 7.18699C15 9.65948 13.5097 12.0997 11.9302 13.876C11.1309 14.775 10.2825 15.5339 9.53422 16.0736C9.16067 16.343 8.80162 16.5653 8.47754 16.7232C8.17373 16.8712 7.82678 17 7.5 17C7.17322 17 6.82627 16.8712 6.52246 16.7232C6.19838 16.5653 5.83934 16.343 5.46578 16.0736C4.71747 15.5339 3.8691 14.775 3.0698 13.876C1.49033 12.0997 0 9.65948 0 7.18699ZM7.49986 9.32927C6.0797 9.32927 4.92843 8.21544 4.92843 6.84146C4.92843 5.46749 6.0797 4.35366 7.49986 4.35366C8.92002 4.35366 10.0713 5.46749 10.0713 6.84146C10.0713 8.21544 8.92002 9.32927 7.49986 9.32927Z" fill="white"/>
</svg>
